# xmcd
#
# Track frame offsets: 
#        150
#        16407
#        41418
#        61337
#        83360
#        104573
#        124030
#        142026
#        162168
#        177765
#        201197
#        221318
#        240492
#        261026
#        281657
#
# Disc length: 4019 seconds
#
# Revision: 0
# Processed by: cddbd v1.5.2PL0 Copyright (c) Steve Scherf et al.
# Submitted via: ExactAudioCopy v1.0b3
#
DISCID=c90fb10f
DTITLE=群星 - DTS ES 正品 百里挑一
DYEAR=2012
DGENRE=DTS ES
TTITLE0=孙露 - 我的歌声里
TTITLE1=雷婷 - 存在
TTITLE2=依雪 - 苦果
TTITLE3=侃侃 - 我最亲爱的
TTITLE4=马小郡 - 伤不起
TTITLE5=崔子格 - 老婆最大
TTITLE6=小骆驼 - 全世界最伤心的人
TTITLE7=雷婷 - 你会爱我到什么时候
TTITLE8=陈思思 - 假如没有说再见
TTITLE9=张玮伽 - 我们的歌谣
TTITLE10=任雪晨 - 你是我的眼
TTITLE11=江智民&周虹 - 因为爱情
TTITLE12=孙露 - 爱情这杯酒谁喝都得醉
TTITLE13=娄译心 - 爱你的感觉
TTITLE14=白晓 - 伤到两个人
EXTD=
EXTT0=
EXTT1=
EXTT2=
EXTT3=
EXTT4=
EXTT5=
EXTT6=
EXTT7=
EXTT8=
EXTT9=
EXTT10=
EXTT11=
EXTT12=
EXTT13=
EXTT14=
PLAYORDER=
